<svg id="Слой_1" data-name="Слой 1" xmlns="http://www.w3.org/2000/svg" viewBox="0 0 1080 1080"><defs><style>.cls-1{fill:#fff;}</style></defs><rect class="cls-1" width="1080" height="1080" rx="90"/><path d="M891.81,276a144,144,0,0,0-28.49-48A137.41,137.41,0,0,0,852,216.68,143.33,143.33,0,0,0,756,180H660a143.33,143.33,0,0,0-96,36.68A137.41,137.41,0,0,0,552.68,228,143,143,0,0,0,540,244.39,143,143,0,0,0,527.32,228,137.41,137.41,0,0,0,516,216.68,143.33,143.33,0,0,0,420,180H324a143.33,143.33,0,0,0-96,36.68A137.41,137.41,0,0,0,216.68,228,143.33,143.33,0,0,0,180,324V876a24,24,0,0,0,24,24h2.23a24.08,24.08,0,0,0,23.68-19.15c.14-.64.27-1.28.42-1.92a.2.2,0,0,1,0-.1c.14-.63.29-1.26.44-1.88.06-.28.13-.54.2-.81l.06-.23.18-.69.06-.19c.32-1.23.68-2.45,1.06-3.66.19-.62.39-1.24.6-1.85s.3-.92.47-1.38.27-.76.41-1.14l.42-1.13c.22-.58.44-1.16.68-1.73.3-.75.61-1.51.94-2.25.24-.57.5-1.14.76-1.71s.4-.87.61-1.31.41-.87.63-1.3l.38-.76c.28-.55.56-1.1.85-1.65.18-.35.37-.69.55-1,.39-.72.79-1.42,1.2-2.13A96.33,96.33,0,0,1,276,816.85,96.08,96.08,0,0,1,324,804h96a96.08,96.08,0,0,1,48,12.85A96.33,96.33,0,0,1,503.15,852c.41.71.81,1.41,1.2,2.13.18.34.37.68.55,1,.29.55.57,1.1.85,1.65l.38.76c.22.43.43.87.63,1.3s.41.88.61,1.31.52,1.14.76,1.71c.33.74.64,1.5.94,2.25.24.57.46,1.15.68,1.73l.42,1.13c.14.38.28.76.41,1.14s.32.92.47,1.38.41,1.23.6,1.85c.38,1.21.74,2.43,1.06,3.66l.06.19.18.69.06.23c.06.27.14.54.2.81.1.43.21.87.31,1.31.21.86.39,1.72.57,2.59A24.08,24.08,0,0,0,537.77,900h4.46a24.08,24.08,0,0,0,23.68-19.15c.14-.64.27-1.28.42-1.92a.2.2,0,0,1,0-.1c.14-.63.29-1.26.44-1.88.06-.28.13-.54.2-.81l.06-.23.18-.69.06-.19c.32-1.23.68-2.45,1.06-3.66.19-.62.39-1.24.6-1.85s.3-.92.47-1.38.27-.76.41-1.14l.42-1.13c.22-.58.44-1.16.68-1.73.3-.75.61-1.51.94-2.25.24-.57.5-1.14.76-1.71s.4-.87.61-1.31.41-.87.63-1.3l.38-.76c.28-.55.56-1.1.85-1.65.18-.35.37-.69.55-1,.39-.72.79-1.42,1.2-2.13A96.33,96.33,0,0,1,612,816.85a95.06,95.06,0,0,1,36-12.1h0a94.79,94.79,0,0,1,12-.75h96a96.7,96.7,0,0,1,12,.74h0a95.1,95.1,0,0,1,36,12.1A96.33,96.33,0,0,1,839.15,852c.41.71.81,1.41,1.2,2.13.18.34.37.68.55,1,.29.55.57,1.1.85,1.65l.38.76c.22.43.43.87.63,1.3s.41.88.61,1.31.52,1.14.76,1.71c.33.74.64,1.5.94,2.25.24.57.46,1.15.68,1.73l.42,1.13c.14.38.28.76.41,1.14s.32.92.47,1.38.41,1.23.6,1.85c.38,1.21.74,2.43,1.06,3.66l.06.19.18.69.06.23c.06.27.14.54.2.81.1.43.21.87.31,1.31.21.86.39,1.72.57,2.59A24.08,24.08,0,0,0,873.77,900H876a24,24,0,0,0,24-24V324A143.92,143.92,0,0,0,891.81,276ZM516,788.29a2,2,0,0,1-3.29,1.52l-.18-.14s-.1-.1-.16-.14l-.09-.07-2-1.69c-.75-.6-1.51-1.19-2.27-1.78l-1.51-1.16-.88-.65-1.34-1c-.53-.39-1.07-.77-1.61-1.15-.73-.51-1.47-1-2.22-1.52-.31-.22-.63-.43-1-.64l-1.65-1.08-1.08-.68c-.36-.24-.72-.46-1.08-.68l-1.29-.79c-.39-.23-.77-.47-1.16-.69l-.95-.56c-.39-.23-.78-.46-1.18-.68-.57-.33-1.14-.65-1.72-1l-.68-.38-1.26-.67c-.51-.27-1-.55-1.55-.81s-1-.54-1.57-.8l-1.58-.78-1.12-.54c-1.22-.58-2.44-1.14-3.68-1.68l-1.17-.5-1.1-.47-1.18-.49c-1-.42-2.07-.83-3.11-1.23l-1.66-.62-1.67-.61A143.92,143.92,0,0,0,420,756H324a143.92,143.92,0,0,0-48,8.19l-1.67.61-1.66.62c-1,.4-2.08.81-3.11,1.23l-1.18.49-1.1.47-1.17.5c-1.24.54-2.46,1.1-3.68,1.68l-1.12.54-1.58.78c-.52.26-1.05.52-1.57.8s-1,.54-1.55.81l-1.26.67-.68.38c-.58.31-1.15.63-1.72,1-.4.22-.79.45-1.18.68l-1,.56c-.39.22-.77.46-1.16.69l-1.29.79c-.36.22-.72.44-1.08.68l-1.08.68-1.65,1.08c-.33.21-.65.42-1,.64-.75.5-1.49,1-2.22,1.52-.54.38-1.08.76-1.61,1.15l-1.34,1-.88.65L236,786c-.76.58-1.51,1.18-2.27,1.78l-2.05,1.69-.09.07c-.06,0-.11.1-.16.14l-.18.14a2,2,0,0,1-3.29-1.52V324a96,96,0,0,1,84-95.25h0a96.7,96.7,0,0,1,12-.74h96a96.7,96.7,0,0,1,12,.74h0a95.1,95.1,0,0,1,36,12.1A96,96,0,0,1,516,324Zm336,0a2,2,0,0,1-3.29,1.52l-.18-.14s-.1-.1-.16-.14l-.09-.07-2-1.69c-.75-.6-1.51-1.19-2.27-1.78l-1.51-1.16-.88-.65-1.34-1c-.53-.39-1.07-.77-1.61-1.15-.73-.51-1.47-1-2.22-1.52-.31-.22-.63-.43-1-.64l-1.65-1.08-1.08-.68c-.36-.24-.72-.46-1.08-.68l-1.29-.79c-.39-.23-.77-.47-1.16-.69l-.95-.56c-.39-.23-.78-.46-1.18-.68-.57-.33-1.14-.65-1.72-1l-.68-.38-1.26-.67c-.51-.27-1-.55-1.55-.81s-1.05-.54-1.57-.8l-1.58-.78-1.12-.54c-1.22-.58-2.44-1.14-3.68-1.68l-1.17-.5-1.1-.47-1.18-.49c-1-.42-2.07-.83-3.11-1.23l-1.66-.62-1.67-.61A143.92,143.92,0,0,0,756,756H660a143.92,143.92,0,0,0-48,8.19l-1.67.61-1.66.62c-1,.4-2.08.81-3.11,1.23l-1.18.49-1.1.47-1.17.5c-1.24.54-2.46,1.1-3.68,1.68l-1.12.54-1.58.78c-.52.26-1.05.52-1.57.8s-1,.54-1.55.81l-1.26.67-.68.38c-.58.31-1.15.63-1.72,1-.4.22-.79.45-1.18.68l-.95.56c-.39.22-.77.46-1.16.69l-1.29.79c-.36.22-.72.44-1.08.68l-1.08.68-1.65,1.08c-.33.21-.65.42-1,.64-.75.5-1.49,1-2.22,1.52-.54.38-1.08.76-1.61,1.15l-1.34,1-.88.65L572,786c-.76.58-1.51,1.18-2.27,1.78l-2,1.69-.09.07c-.06,0-.11.1-.16.14l-.18.14a2,2,0,0,1-3.29-1.52V324a96,96,0,0,1,84-95.25h0a94.79,94.79,0,0,1,12-.75h96a96.7,96.7,0,0,1,12,.74h0a95.1,95.1,0,0,1,36,12.1A96,96,0,0,1,852,324Z"/><rect x="612" y="372" width="192" height="144" rx="24"/><rect x="612" y="564" width="192" height="48" rx="24"/><rect x="612" y="660" width="192" height="48" rx="24"/><rect x="276" y="372" width="192" height="144" rx="24"/><rect x="276" y="564" width="192" height="48" rx="24"/><rect x="276" y="660" width="192" height="48" rx="24"/><rect x="612" y="276" width="192" height="48" rx="24"/><rect x="276" y="276" width="192" height="48" rx="24"/></svg>